# xmcd
#
# Track frame offsets:
#	150
#	24321
#	37711
#	57085
#	70738
#	83341
#	106098
#	122937
#	142322
#	158255
#	175374
#	189835
#	204111
#	217397
#
# Disc length: 3064 seconds
#
# Revision: 0
# Processed by: cddbd v1.5.2PL0 Copyright (c) Steve Scherf et al.
# Submitted via: EasyCDDAExtractor 11.1.0.1
#
DISCID=b00bf60e
DTITLE=Various Artist - Mr Music Country
DYEAR=2008
DGENRE=country
TTITLE0=Brad Paisley  - Bigger fish to fry
TTITLE1=Sarah Jones - When do I get to be a woman
TTITLE2=Alan Jackson - If you want to make me happy
TTITLE3=Jake Owen - The bottle and me
TTITLE4=Van Preston - What goes around comes around
TTITLE5=Kenny Chesney - Demons
TTITLE6=Jason Michael Carroll - Honky tonky friends
TTITLE7=Van Zant - These colors don't run
TTITLE8=Gretchen Wilson - If you want a mother
TTITLE9=Chris YOung - White lightning hit the family tree
TTITLE10=Keith McCoy - Start to stop loving you
TTITLE11=Dolly Parton - Cracker Jack
TTITLE12=Brooks and Dunn - Johnny Cash junkie
TTITLE13=Miranda Lambert - Love letters
EXTD=
EXTT0=
EXTT1=
EXTT2=
EXTT3=
EXTT4=
EXTT5=
EXTT6=
EXTT7=
EXTT8=
EXTT9=
EXTT10=
EXTT11=
EXTT12=
EXTT13=
PLAYORDER=
